<svg width="20" height="20" viewBox="0 0 20 20" fill="none" xmlns="http://www.w3.org/2000/svg">
<path d="M8.75 6.25C8.75 6.00277 8.82331 5.7611 8.96066 5.55554C9.09801 5.34998 9.29324 5.18976 9.52165 5.09515C9.75005 5.00054 10.0014 4.97579 10.2439 5.02402C10.4863 5.07225 10.7091 5.1913 10.8839 5.36612C11.0587 5.54093 11.1778 5.76366 11.226 6.00614C11.2742 6.24861 11.2495 6.49995 11.1548 6.72835C11.0602 6.95676 10.9 7.15199 10.6945 7.28934C10.4889 7.42669 10.2472 7.5 10 7.5C9.66848 7.5 9.35054 7.3683 9.11612 7.13388C8.8817 6.89946 8.75 6.58152 8.75 6.25ZM5 6.25C5 4.92392 5.52678 3.65215 6.46447 2.71447C7.40215 1.77678 8.67392 1.25 10 1.25C11.3261 1.25 12.5979 1.77678 13.5355 2.71447C14.4732 3.65215 15 4.92392 15 6.25C15 10.9336 10.5016 13.5578 10.3125 13.668C10.218 13.722 10.1111 13.7504 10.0023 13.7504C9.89355 13.7504 9.78664 13.722 9.69219 13.668C9.49844 13.5578 5 10.9375 5 6.25ZM6.25 6.25C6.25 9.54688 9.05 11.7352 10 12.3828C10.9492 11.7359 13.75 9.54688 13.75 6.25C13.75 5.25544 13.3549 4.30161 12.6517 3.59835C11.9484 2.89509 10.9946 2.5 10 2.5C9.00544 2.5 8.05161 2.89509 7.34835 3.59835C6.64509 4.30161 6.25 5.25544 6.25 6.25ZM15.8414 11.5336C15.6876 11.4828 15.52 11.4937 15.3741 11.564C15.2281 11.6343 15.1152 11.7585 15.0591 11.9105C15.0029 12.0625 15.008 12.2303 15.0732 12.3786C15.1384 12.5269 15.2587 12.6441 15.4086 12.7055C16.6984 13.1828 17.5 13.8219 17.5 14.375C17.5 15.4187 14.6469 16.875 10 16.875C5.35313 16.875 2.5 15.4187 2.5 14.375C2.5 13.8219 3.30156 13.1828 4.59141 12.7062C4.74134 12.6449 4.86158 12.5277 4.92679 12.3794C4.99199 12.2311 4.99707 12.0633 4.94094 11.9113C4.88481 11.7593 4.77187 11.6351 4.62592 11.5648C4.47997 11.4945 4.31242 11.4836 4.15859 11.5344C2.28281 12.2258 1.25 13.2352 1.25 14.375C1.25 16.8109 5.75859 18.125 10 18.125C14.2414 18.125 18.75 16.8109 18.75 14.375C18.75 13.2352 17.7172 12.2258 15.8414 11.5336Z" fill="#142C6B"/>
</svg>
